<?xml version="1.0" standalone="no"?>
<!DOCTYPE svg PUBLIC "-//W3C//DTD SVG 20010904//EN"
 "http://www.w3.org/TR/2001/REC-SVG-20010904/DTD/svg10.dtd">
<svg version="1.0" xmlns="http://www.w3.org/2000/svg"
 width="646.000000pt" height="240.000000pt" viewBox="0 0 646.000000 240.000000"
 preserveAspectRatio="xMidYMid meet">

<g transform="translate(0.000000,240.000000) scale(0.100000,-0.100000)"
fill="#000000" stroke="none">
<path d="M3930 1724 c0 -1 -7 -34 -15 -73 -8 -39 -18 -135 -21 -213 l-7 -142
36 38 c42 44 65 43 110 -5 38 -41 37 -92 -4 -147 -38 -51 -70 -62 -107 -35
l-27 20 -1 -30 c-1 -25 -17 -46 -35 -47 -19 0 -77 51 -97 85 -17 31 -21 50
-17 85 3 25 7 68 10 95 11 96 17 131 42 238 14 60 23 111 20 114 -3 3 -27 -2
-53 -11 -26 -9 -60 -16 -76 -16 -16 0 -42 -7 -57 -14 -37 -20 -89 -80 -97
-112 -8 -33 10 -316 23 -354 7 -21 93 238 93 282 0 45 8 68 25 68 31 0 38 -30
37 -153 -2 -143 -12 -200 -59 -360 -19 -65 -34 -119 -32 -121 2 -2 21 -1 42 2
31 3 40 10 52 38 16 39 48 45 90 18 20 -13 32 -14 80 -4 l55 11 -16 28 -17 28
117 116 c64 63 116 120 116 125 0 6 -13 13 -29 17 -31 7 -56 31 -89 86 -18 30
-22 52 -22 120 0 46 4 111 10 143 5 33 8 62 5 64 -5 5 -85 21 -85 16z"/>
<path d="M4315 1664 c-86 -37 -88 -45 -6 -21 39 11 73 27 75 34 7 18 1 16 -69
-13z"/>
<path d="M4268 1557 c-58 -28 -67 -36 -68 -59 l0 -26 69 34 c38 19 74 34 80
34 6 0 10 11 9 25 -3 31 -8 31 -90 -8z"/>
<path d="M5352 1513 c-7 -3 -19 -18 -28 -34 -14 -28 -13 -31 9 -62 24 -31 57
-90 57 -101 0 -3 -13 -20 -29 -38 -16 -18 -48 -69 -71 -112 l-43 -80 24 -18
c13 -11 36 -29 51 -42 28 -24 48 -18 48 13 0 9 9 31 20 49 16 26 26 32 55 32
29 0 44 -9 81 -46 l46 -45 51 17 c29 9 113 40 188 68 130 49 135 53 126 74
-14 30 -41 28 -100 -10 -80 -51 -208 -67 -232 -28 -5 8 -10 8 -20 0 -32 -26
-125 41 -125 90 0 51 105 119 155 100 13 -5 51 4 113 26 51 19 104 34 117 34
14 0 25 4 25 9 0 14 -48 61 -64 61 -8 0 -69 -16 -136 -35 -67 -19 -134 -35
-149 -35 -45 0 -140 73 -141 108 0 13 -6 14 -28 5z"/>
<path d="M4380 1403 l-42 -48 38 -12 c67 -20 71 -18 79 37 12 85 -13 93 -75
23z"/>
<path d="M2570 1396 c-14 -8 -56 -29 -94 -48 -38 -18 -75 -42 -82 -54 -13 -19
-46 -116 -41 -120 28 -24 100 -74 103 -71 2 2 7 26 10 53 7 49 43 134 72 167
23 26 64 21 112 -14 48 -35 52 -35 165 17 l50 22 -56 1 c-43 1 -71 9 -114 31
-63 33 -88 36 -125 16z"/>
<path d="M928 1239 c-65 -32 -118 -63 -118 -67 0 -4 23 -15 51 -25 l51 -19 40
39 c31 30 106 135 95 132 -1 0 -55 -27 -119 -60z"/>
<path d="M4193 1193 c-87 -104 -153 -199 -153 -220 0 -24 45 -22 77 3 73 56
85 75 78 127 -5 43 -4 47 15 47 12 0 30 -4 40 -10 16 -8 24 -3 52 33 19 23 42
54 51 70 17 27 17 27 -5 36 -65 24 -60 27 -155 -86z"/>
<path d="M5740 1275 c-74 -21 -98 -33 -110 -55 -9 -17 -8 -20 10 -20 73 0 200
52 200 82 0 11 -47 8 -100 -7z"/>
<path d="M2793 1217 c-40 -16 -73 -36 -76 -45 -3 -10 -13 -35 -22 -57 -20 -46
-24 -48 95 54 41 36 77 66 79 68 2 2 2 4 0 6 -2 2 -36 -10 -76 -26z"/>
<path d="M5050 1175 c-7 -9 -10 -18 -7 -21 3 -3 10 4 17 15 13 25 8 27 -10 6z"/>
<path d="M4899 1134 c-13 -7 -43 -13 -66 -14 -24 0 -43 -2 -43 -4 0 -2 7 -20
15 -39 19 -46 19 -80 0 -117 -17 -34 -14 -35 48 -21 42 10 64 29 125 112 45
60 50 71 27 63 -8 -3 -30 3 -48 14 -29 17 -37 18 -58 6z"/>
<path d="M2865 1049 c-33 -16 -84 -37 -112 -46 -50 -16 -54 -16 -72 1 -19 17
-20 17 -31 -26 -6 -23 -13 -48 -15 -54 -5 -16 214 50 276 83 34 17 48 30 45
40 -3 8 -6 19 -6 24 0 15 -21 9 -85 -22z"/>
<path d="M5245 980 c12 -153 11 -150 59 -150 l42 0 -5 42 c-2 24 -10 47 -17
53 -7 5 -29 37 -49 70 l-37 60 7 -75z"/>
<path d="M5837 1029 c-66 -15 -79 -26 -64 -52 6 -12 12 -23 13 -25 1 -1 28 7
60 19 55 21 84 42 84 61 0 10 -43 9 -93 -3z"/>
<path d="M5620 960 c-30 -11 -56 -20 -57 -20 -2 0 -3 -9 -3 -21 0 -15 5 -19
18 -15 9 2 36 8 60 11 38 6 42 9 42 36 0 16 -1 29 -2 28 -2 0 -28 -9 -58 -19z"/>
<path d="M5146 936 c-17 -37 -21 -72 -8 -80 8 -5 35 104 28 111 -2 2 -11 -12
-20 -31z"/>
<path d="M4355 918 c-3 -7 -11 -39 -19 -71 -8 -31 -17 -61 -20 -66 -14 -22 94
26 127 57 44 43 46 52 10 52 -16 0 -43 9 -61 20 -24 15 -34 17 -37 8z"/>
<path d="M4206 911 c-4 -7 -5 -15 -2 -18 9 -9 19 4 14 18 -4 11 -6 11 -12 0z"/>
<path d="M5808 881 c-39 -17 -58 -31 -58 -43 0 -19 18 -22 57 -12 19 5 70 72
61 79 -2 1 -29 -10 -60 -24z"/>
<path d="M2760 854 c-47 -13 -97 -23 -112 -24 -23 0 -28 -4 -28 -25 0 -29 8
-32 24 -9 13 18 78 33 142 34 30 0 47 6 64 25 28 30 23 30 -90 -1z"/>
<path d="M5610 830 l-55 -7 58 -1 c32 -1 57 2 57 8 0 6 -1 9 -2 8 -2 -1 -28
-4 -58 -8z"/>
</g>
</svg>
